<?xml version="1.0" encoding="UTF-8" standalone="no"?>
<!-- Created with Inkscape (http://www.inkscape.org/) -->

<svg
   xmlns:dc="http://purl.org/dc/elements/1.1/"
   xmlns:cc="http://creativecommons.org/ns#"
   xmlns:rdf="http://www.w3.org/1999/02/22-rdf-syntax-ns#"
   xmlns:svg="http://www.w3.org/2000/svg"
   xmlns="http://www.w3.org/2000/svg"
   xmlns:sodipodi="http://sodipodi.sourceforge.net/DTD/sodipodi-0.dtd"
   xmlns:inkscape="http://www.inkscape.org/namespaces/inkscape"
   width="155.68027"
   height="28.23666"
   viewBox="0 0 41.190402 7.4709498"
   version="1.1"
   id="svg6130"
   inkscape:version="0.92.0 r15299"
   sodipodi:docname="georgia power.svg">
  <defs
     id="defs6124">
    <clipPath
       id="clipPath1186"
       clipPathUnits="userSpaceOnUse">
      <path
         inkscape:connector-curvature="0"
         id="path1184"
         d="m 54.533,243.707 h 116.01 v 20.427 H 54.533 Z" />
    </clipPath>
  </defs>
  <sodipodi:namedview
     id="base"
     pagecolor="#ffffff"
     bordercolor="#666666"
     borderopacity="1.0"
     inkscape:pageopacity="0.0"
     inkscape:pageshadow="2"
     inkscape:zoom="5.1848891"
     inkscape:cx="77.340131"
     inkscape:cy="13.618332"
     inkscape:document-units="mm"
     inkscape:current-layer="layer1"
     showgrid="false"
     fit-margin-top="0"
     fit-margin-left="0"
     fit-margin-right="0"
     fit-margin-bottom="0"
     units="px"
     inkscape:window-width="1280"
     inkscape:window-height="744"
     inkscape:window-x="-4"
     inkscape:window-y="-4"
     inkscape:window-maximized="1" />
  <metadata
     id="metadata6127">
    <rdf:RDF>
      <cc:Work
         rdf:about="">
        <dc:format>image/svg+xml</dc:format>
        <dc:type
           rdf:resource="http://purl.org/dc/dcmitype/StillImage" />
        <dc:title></dc:title>
      </cc:Work>
    </rdf:RDF>
  </metadata>
  <g
     inkscape:label="Layer 1"
     inkscape:groupmode="layer"
     id="layer1"
     transform="translate(-73.275186,-172.93581)">
    <g
       id="g6176"
       transform="translate(0.13229242,-0.13228891)">
      <g
         id="g1164"
         transform="matrix(0.35277777,0,0,-0.35277777,73.275186,179.39196)">
        <path
           d="M 0,0 H 20.266 L 20.263,0.005 6.736,3.377 Z"
           style="fill:#0a7abc;fill-opacity:1;fill-rule:nonzero;stroke:none"
           id="path1166"
           inkscape:connector-curvature="0" />
      </g>
      <g
         id="g1168"
         transform="matrix(0.35277777,0,0,-0.35277777,73.275186,179.39196)">
        <path
           d="M 0,0 6.736,3.377 2.551,4.421 Z"
           style="fill:#a6d71c;fill-opacity:1;fill-rule:nonzero;stroke:none"
           id="path1170"
           inkscape:connector-curvature="0" />
      </g>
      <g
         id="g1172"
         transform="matrix(0.35277777,0,0,-0.35277777,75.651636,178.20063)">
        <path
           d="M 0,0 13.527,-3.372 8.98,4.502 Z"
           style="fill:#40c1f3;fill-opacity:1;fill-rule:nonzero;stroke:none"
           id="path1174"
           inkscape:connector-curvature="0" />
      </g>
      <g
         id="g1176"
         transform="matrix(0.35277777,0,0,-0.35277777,76.849916,173.20039)">
        <path
           d="M 0,0 -7.043,-12.2 5.043,-8.735 Z"
           style="fill:#ed1c24;fill-opacity:1;fill-rule:nonzero;stroke:none"
           id="path1178"
           inkscape:connector-curvature="0" />
      </g>
      <g
         transform="matrix(0.35277777,0,0,-0.35277777,54.037226,266.38124)"
         id="g1180">
        <g
           id="g1182"
           clip-path="url(#clipPath1186)">
          <g
             id="g1188"
             transform="translate(167.6511,252.9302)">
            <path
               d="M 0,0 C 0.466,0.675 1.349,1.526 2.667,1.526 L 2.892,0.112 c -1.221,0 -2.073,-0.497 -2.812,-1.687 v -4.771 h -1.574 v 7.728 h 1.301 z m -4.489,-1.494 c -0.096,0.514 -0.305,1.767 -1.703,1.767 -1.125,0 -1.623,-0.996 -1.751,-1.767 z m -3.535,-1.222 c 0.016,-0.819 0.322,-2.442 2.17,-2.442 1.43,0 2.506,0.884 2.731,1.093 l 0.225,-1.382 c -0.321,-0.273 -1.285,-1.06 -3.134,-1.06 -2.121,0 -3.566,1.429 -3.566,4.033 0,2.699 1.622,4.017 3.422,4.017 2.298,0 3.293,-1.881 3.293,-3.873 v -0.386 z m -1.749,4.098 -2.442,-7.728 h -1.286 l -1.622,5.35 -1.607,-5.35 h -1.286 l -2.458,7.728 h 1.591 l 1.574,-5.303 1.607,5.303 h 1.302 l 1.606,-5.303 1.575,5.303 z m -14.424,-6.556 c 1.204,0 1.991,1.141 1.991,2.684 0,1.558 -0.771,2.683 -1.991,2.683 -1.351,0 -1.993,-1.285 -1.993,-2.683 0,-1.494 0.723,-2.684 1.993,-2.684 m 0,-1.333 c -1.993,0 -3.584,1.286 -3.584,4.017 0,2.698 1.623,4.016 3.584,4.016 2.056,0 3.566,-1.414 3.566,-4.016 0,-2.668 -1.607,-4.017 -3.566,-4.017 m -9.333,5.768 h 1.769 c 1.654,0 2.377,0.867 2.377,2.008 0,1.174 -0.755,2.008 -2.377,2.008 h -1.769 z m 5.849,2.008 c 0,-2.201 -1.639,-3.47 -3.744,-3.47 h -2.105 v -4.145 h -1.654 V 4.74 h 3.759 c 2.475,0 3.744,-1.606 3.744,-3.471 m -14.525,-3.792 c -1.767,-0.177 -3.229,-0.546 -3.229,-1.622 0,-0.691 0.482,-1.029 1.189,-1.029 1.06,0 1.864,0.836 2.04,1.012 z m 0.193,-3.823 -0.063,0.948 c -0.145,-0.226 -0.917,-1.109 -2.299,-1.109 -1.446,0 -2.602,0.754 -2.602,2.409 0,2.315 3.132,2.635 4.771,2.812 v 0.241 c 0,0.564 -0.224,1.238 -1.51,1.238 -1.156,0 -2.346,-0.611 -2.539,-0.707 l -0.208,1.382 c 0.224,0.112 1.477,0.658 2.859,0.658 2.298,0 2.973,-1.045 2.973,-2.731 v -5.141 z m -6.142,7.728 h -1.574 v -7.728 h 1.574 v 1.172 z m 0.193,2.329 c 0,-0.53 -0.45,-0.964 -0.98,-0.964 -0.547,0 -0.981,0.434 -0.981,0.964 0,0.548 0.434,0.98 0.981,0.98 0.53,0 0.98,-0.432 0.98,-0.98 m -7.063,-3.358 c -0.884,0 -1.479,-0.691 -1.479,-1.526 0,-0.836 0.499,-1.527 1.479,-1.527 0.883,0 1.478,0.676 1.478,1.527 0,0.851 -0.579,1.526 -1.478,1.526 m -0.772,-6.122 c -0.579,-0.257 -1.237,-0.754 -1.237,-1.301 0,-0.562 0.658,-0.98 2.233,-0.98 1.174,0 2.17,0.37 2.17,1.077 0,0.61 -0.852,0.77 -1.559,0.9 -0.611,0.112 -1.607,0.304 -1.607,0.304 m 4.917,5.834 -1.398,-0.145 c 0.065,-0.097 0.241,-0.45 0.241,-1.093 0,-1.189 -0.883,-2.683 -2.957,-2.683 -0.32,0 -0.514,0.033 -0.577,0.048 -0.081,-0.033 -0.306,-0.209 -0.306,-0.386 0,-0.193 0.273,-0.241 0.546,-0.289 0.29,-0.08 1.174,-0.241 1.688,-0.322 1.477,-0.224 2.506,-0.803 2.506,-2.008 0,-1.542 -1.622,-2.41 -3.647,-2.41 -2.845,0 -3.744,1.029 -3.744,2.04 0,1.141 1.237,1.785 1.542,1.944 -0.16,0.13 -0.417,0.371 -0.417,0.788 0,0.53 0.514,0.883 0.707,1.013 -0.546,0.289 -1.334,1.028 -1.334,2.265 0,1.35 1.077,2.699 2.972,2.699 1.141,0 1.8,-0.481 1.977,-0.626 l 1.976,0.61 z M -61.351,0 c 0.466,0.675 1.349,1.526 2.667,1.526 l 0.225,-1.414 c -1.221,0 -2.073,-0.497 -2.811,-1.687 v -4.771 h -1.575 v 7.728 h 1.301 z m -6.276,-5.174 c 1.206,0 1.993,1.141 1.993,2.684 0,1.558 -0.771,2.683 -1.993,2.683 -1.35,0 -1.992,-1.285 -1.992,-2.683 0,-1.494 0.722,-2.684 1.992,-2.684 m 0,-1.333 c -1.992,0 -3.583,1.286 -3.583,4.017 0,2.698 1.622,4.016 3.583,4.016 2.056,0 3.567,-1.414 3.567,-4.016 0,-2.668 -1.607,-4.017 -3.567,-4.017 m -6.033,5.013 c -0.096,0.514 -0.306,1.767 -1.704,1.767 -1.124,0 -1.622,-0.996 -1.751,-1.767 z m -3.536,-1.222 c 0.017,-0.819 0.322,-2.442 2.17,-2.442 1.429,0 2.507,0.884 2.731,1.093 l 0.226,-1.382 c -0.322,-0.273 -1.286,-1.06 -3.134,-1.06 -2.121,0 -3.566,1.429 -3.566,4.033 0,2.699 1.622,4.017 3.422,4.017 2.298,0 3.294,-1.881 3.294,-3.873 v -0.386 z m -3.294,6.685 -0.257,-1.703 c -0.273,0.208 -1.51,1.172 -3.294,1.172 -2.298,0 -3.503,-1.735 -3.503,-4.241 0,-2.539 1.238,-4.243 3.47,-4.243 1.157,0 2.266,0.418 2.443,0.531 v 2.779 h -2.507 l -0.24,1.511 h 4.386 v -5.238 c -0.145,-0.129 -1.527,-1.044 -3.937,-1.044 -2.972,0 -5.301,1.879 -5.301,5.704 0,3.583 2.12,5.704 5.237,5.704 2.201,0 3.165,-0.691 3.503,-0.932"
               style="fill:#5a5758;fill-opacity:1;fill-rule:nonzero;stroke:none"
               id="path1190"
               inkscape:connector-curvature="0" />
          </g>
        </g>
      </g>
    </g>
  </g>
</svg>
